<svg width="25" height="25" viewBox="0 0 25 25" fill="none" xmlns="http://www.w3.org/2000/svg">
<path d="M18.45 9.76543C19.2 9.01543 19.8 8.56543 20.25 8.11543C22.65 5.71543 25.05 1.96543 23.55 0.46543C22.05 -1.03457 18.45 1.36543 16.05 3.76543C15.6 4.21543 15.15 4.81543 14.4 5.56543L3.9 0.76543C2.85 0.31543 1.65 0.46543 0.9 1.21543L0 1.96543L9.9 10.5154C7.95 12.9154 5.85 15.1654 4.8 16.5154L3.15 15.6154C2.4 15.1654 1.35 15.1654 0.75 15.9154L0.3 16.3654L4.5 19.5154L7.5 23.7154L7.95 23.2654C8.55 22.6654 8.7 21.6154 8.25 20.8654L7.5 19.2154C8.85 18.1654 11.1 16.0654 13.5 14.1154L22.05 24.0154L22.8 23.2654C23.55 22.5154 23.7 21.3154 23.25 20.2654L18.45 9.76543Z" fill="#F9F9F9"/>
</svg>
